<svg xmlns="http://www.w3.org/2000/svg" version="1.1" viewBox="-5.0 -10.0 110.0 135.0">
 <path d="m46.184 5.6953h-30.297v8.2461h24.266c0.84375 0 1.5273 0.68359 1.5273 1.5273s-0.68359 1.5273-1.5273 1.5273l-28.422 0.003906c-0.69922 0-1.2891-0.47266-1.4727-1.1133h-4.5625v42.762h40.488zm-34.453 45.988c-0.84375 0-1.5273-0.68359-1.5273-1.5273s0.68359-1.5273 1.5273-1.5273h28.422c0.84375 0 1.5273 0.68359 1.5273 1.5273s-0.68359 1.5273-1.5273 1.5273zm85.172-2.7578c0.03125 0.03125 0.058594 0.0625 0.089844 0.09375l0.011718 0.015625 0.011719 0.011719 0.011719 0.015625v0.003906l0.011718 0.011719 0.011719 0.015625 0.007813 0.007812 0.019531 0.027344 0.003906 0.003906 0.019531 0.023438v0.003906l0.003907 0.003906 0.019531 0.027344 0.019531 0.03125 0.015625 0.027344v0.003906l0.015625 0.027344 0.015625 0.03125 0.007813 0.011719 0.007812 0.015625 0.003907 0.003906 0.007812 0.011719 0.007812 0.015625c0.089844 0.19531 0.14063 0.41406 0.14063 0.64062v45.816c0 0.84375-0.68359 1.5273-1.5273 1.5273h-43.551c-0.84375 0-1.5273-0.68359-1.5273-1.5273v-11.473h-4.7539c-0.44922 0-0.85547-0.19531-1.1367-0.50391-0.29297 0.32422-0.70703 0.5-1.1289 0.5v0.003907h-4.5078c-1.1406 2.0938-2.7969 3.8711-4.8008 5.1602-2.2109 1.4219-4.8398 2.25-7.6562 2.25-3.9141 0-7.4531-1.5859-10.02-4.1484-2.5625-2.5625-4.1484-6.1055-4.1484-10.02 0-3.9141 1.5859-7.4531 4.1484-10.02 2.5625-2.5625 6.1055-4.1484 10.02-4.1484 2.8164 0 5.4453 0.82422 7.6562 2.25 1.9961 1.2852 3.6523 3.0625 4.793 5.1602h11.535v-31.016c0-0.84375 0.68359-1.5273 1.5273-1.5273h33.355 0.039063 0.035156 0.003906c0.011719 0 0.023438 0 0.035156 0.003906h0.003907c0.011719 0 0.023437 0.003907 0.035156 0.003907l0.035156 0.003906h0.007813l0.03125 0.003906h0.007812l0.03125 0.007812h0.007813l0.027343 0.007813h0.011719l0.03125 0.007813h0.007813l0.03125 0.007812h0.003906l0.027344 0.007812h0.007812l0.027344 0.007813h0.007812l0.035157 0.011719 0.027343 0.007812 0.007813 0.007813 0.023437 0.007812 0.03125 0.015625 0.011719 0.003906 0.015625 0.007813 0.003906 0.003906 0.011719 0.003907 0.015625 0.007812 0.003906 0.003906 0.011719 0.007813 0.015625 0.007812h0.003906l0.03125 0.015625h0.003907l0.046875 0.023438 0.015625 0.011718 0.015625 0.007813 0.10938 0.082031 0.011719 0.011719 0.10937 0.082031 0.011719 0.011719 0.015625 0.011719zm-2.5977 2.6172h-8.6602c-0.84375 0-1.5273-0.68359-1.5273-1.5273v-8.6602h-30.301v29.484h14.52c0.64453 0 1.1992 0.40234 1.4219 0.96875l2.0703 4.3047c0.24609 0.50781 0.18359 1.0859-0.11328 1.5234l-4.1367 6.0547c-0.29688 0.43359-0.77344 0.66406-1.2578 0.66406v0.003906h-3.5547c-0.44922 0-0.85547-0.19531-1.1328-0.50391-0.29297 0.32422-0.70703 0.5-1.1289 0.5v0.003906h-6.1133c-0.19922 0-0.39453-0.039063-0.57031-0.10938v10.055h40.488zm-7.1367-8.0273v4.9727h4.9727zm-20.734 11.926h10.598c0.84375 0 1.5273-0.68359 1.5273-1.5273s-0.68359-1.5273-1.5273-1.5273l-10.598-0.003907c-0.84375 0-1.5273 0.68359-1.5273 1.5273 0 0.84766 0.68359 1.5312 1.5273 1.5312zm-6.9844 8.668h12.523c0.84375 0 1.5273-0.68359 1.5273-1.5273s-0.68359-1.5273-1.5273-1.5273h-12.523c-0.84375 0-1.5273 0.68359-1.5273 1.5273s0.68359 1.5273 1.5273 1.5273zm16.777 8.6719h11.801c0.84375 0 1.5273-0.68359 1.5273-1.5273s-0.68359-1.5273-1.5273-1.5273h-11.801c-0.84375 0-1.5273 0.68359-1.5273 1.5273s0.68359 1.5273 1.5273 1.5273zm6.6641 8.6719h5.3789c0.84375 0 1.5273-0.68359 1.5273-1.5273s-0.68359-1.5273-1.5273-1.5273h-5.3789c-0.84375 0-1.5273 0.68359-1.5273 1.5273s0.68359 1.5273 1.5273 1.5273zm-23.043 8.668h11.641c0.84375 0 1.5273-0.68359 1.5273-1.5273s-0.68359-1.5273-1.5273-1.5273h-11.641c-0.84375 0-1.5273 0.68359-1.5273 1.5273s0.6875 1.5273 1.5273 1.5273zm23.043-26.012h5.3789c0.84375 0 1.5273-0.68359 1.5273-1.5273s-0.68359-1.5273-1.5273-1.5273h-5.3789c-0.84375 0-1.5273 0.68359-1.5273 1.5273s0.68359 1.5273 1.5273 1.5273zm-3.5312 26.012h8.9102c0.84375 0 1.5273-0.68359 1.5273-1.5273s-0.68359-1.5273-1.5273-1.5273h-8.9102c-0.84375 0-1.5273 0.68359-1.5273 1.5273s0.68359 1.5273 1.5273 1.5273zm-52.582-17.609c-1.4102 0-2.6875 0.57031-3.6133 1.4961-0.92578 0.92578-1.4961 2.2031-1.4961 3.6133s0.57031 2.6875 1.4961 3.6133c0.92578 0.92578 2.2031 1.4961 3.6133 1.4961s2.6914-0.57031 3.6133-1.4961c0.92578-0.92578 1.4961-2.2031 1.4961-3.6133s-0.57031-2.6914-1.4961-3.6133c-0.92188-0.92578-2.1992-1.4961-3.6133-1.4961zm1.457 3.6562c-0.37109-0.37109-0.88672-0.60156-1.4531-0.60156s-1.082 0.23047-1.4531 0.60156c-0.37109 0.37109-0.60156 0.88672-0.60156 1.4531s0.23047 1.082 0.60156 1.4531c0.37109 0.37109 0.88672 0.60156 1.4531 0.60156s1.082-0.23047 1.4531-0.60156c0.37109-0.37109 0.60156-0.88672 0.60156-1.4531s-0.23047-1.082-0.60156-1.4531zm28.715-64.523c-0.84375 0-1.5273-0.68359-1.5273-1.5273s0.68359-1.5273 1.5273-1.5273h28.422c0.84375 0 1.5273 0.68359 1.5273 1.5273v14.047h2.2969v0.007813c0.25781 0 0.51953 0.066406 0.75781 0.20312 0.73047 0.41797 0.98047 1.3477 0.5625 2.0781l-3.8164 6.6094c-0.12891 0.23047-0.32031 0.43359-0.57031 0.57422-0.73047 0.41797-1.6562 0.16797-2.0781-0.5625l-3.75-6.4961c-0.17969-0.25-0.28125-0.55469-0.28125-0.88281 0-0.84375 0.68359-1.5273 1.5273-1.5273h2.2969v-12.52zm28.418 17.629 1.1875-2.0547h-2.3711zm-73.637-3.6016c-0.84375 0-1.5273-0.68359-1.5273-1.5273s0.68359-1.5273 1.5273-1.5273h28.422c0.84375 0 1.5273 0.68359 1.5273 1.5273s-0.68359 1.5273-1.5273 1.5273zm1.1016-17.816v4.9727l-4.9766 0.003906zm-10.191 6.5039c0-0.23047 0.050781-0.44531 0.14062-0.64453l0.007812-0.015625 0.007813-0.011719 0.003906-0.003906 0.007813-0.015625 0.007812-0.011719 0.015625-0.03125 0.015625-0.027344v-0.003906l0.015625-0.027344 0.019531-0.03125 0.015626-0.027344 0.003906-0.003906v-0.003906l0.019531-0.023438 0.003906-0.003906 0.019531-0.027344 0.007813-0.007812 0.011719-0.015625 0.011718-0.011719v-0.003906l0.011719-0.015625 0.011719-0.011719 0.011719-0.015625c0.027343-0.03125 0.058593-0.0625 0.089843-0.09375l10.168-10.172 0.035157-0.035156 0.015624-0.011719 0.011719-0.011719 0.10938-0.082031 0.011719-0.011719 0.10938-0.082031 0.078125-0.039062v-0.003907l0.03125-0.015624h0.003906l0.015625-0.007813 0.011719-0.007813 0.003906-0.003906 0.015625-0.007812 0.011719-0.003906 0.003906-0.003907 0.015625-0.007812 0.011719-0.003907 0.03125-0.015624 0.023437-0.007813 0.007813-0.007813 0.027344-0.007812 0.011719-0.003906 0.03125-0.003906 0.003906-0.003907h0.003906l0.03125-0.007812h0.007812l0.027344-0.007813h0.003906l0.03125-0.007812h0.007813l0.03125-0.007813h0.011719l0.027344-0.007812h0.007812l0.03125-0.007813h0.007812l0.03125-0.003906h0.007813c0.011719-0.003906 0.023437-0.003906 0.035156-0.003906h0.003907c0.011718 0 0.023437-0.003906 0.035156-0.003906h0.003906l0.035156-0.003907h0.003906 0.035157 0.039062 33.355c0.84375 0 1.5273 0.68359 1.5273 1.5273v56.008c0 0.84375-0.68359 1.5273-1.5273 1.5273l-43.551-0.003906c-0.84375 0-1.5273-0.68359-1.5273-1.5273zm9.0898 19.98c-0.84375 0-1.5273-0.68359-1.5273-1.5273s0.68359-1.5273 1.5273-1.5273h28.422c0.84375 0 1.5273 0.68359 1.5273 1.5273s-0.68359 1.5273-1.5273 1.5273zm0 8.6719c-0.84375 0-1.5273-0.68359-1.5273-1.5273s0.68359-1.5273 1.5273-1.5273h28.422c0.84375 0 1.5273 0.68359 1.5273 1.5273s-0.68359 1.5273-1.5273 1.5273zm21.055 25.23c-1.7305-1.1133-3.793-1.7617-6.0078-1.7617-3.0703 0-5.8477 1.2422-7.8594 3.2539s-3.2539 4.7891-3.2539 7.8594 1.2422 5.8477 3.2539 7.8594 4.7891 3.2539 7.8594 3.2539c2.2188 0 4.2812-0.64453 6.0117-1.7578 1.7773-1.1445 3.207-2.7852 4.0977-4.7305 0.23438-0.54297 0.77344-0.92188 1.4023-0.92188h4.5742l0.68359-1.1797c0.12891-0.23047 0.32031-0.42969 0.56641-0.57031 0.72656-0.42188 1.6602-0.17188 2.082 0.55469l0.69141 1.1953h4.3594l0.68359-1.1797c0.12891-0.23047 0.32031-0.42969 0.5625-0.57031 0.73047-0.42188 1.6602-0.17188 2.082 0.55469l0.69141 1.1953h4.3594l0.68359-1.1797c0.12891-0.23047 0.32031-0.42969 0.56641-0.57031 0.72656-0.42188 1.6602-0.17188 2.082 0.55469l0.69141 1.1953h1.875l3.1836-4.6602-1.3203-2.7461h-29.098v-0.003906c-0.57812 0-1.1289-0.33203-1.3828-0.89062-0.89062-1.9492-2.3281-3.6016-4.1211-4.7539z" fill-rule="evenodd"/>
</svg>