<svg xmlns="http://www.w3.org/2000/svg" xmlns:xlink="http://www.w3.org/1999/xlink" version="1.1" x="0px" y="0px" viewBox="0 0 500 625" style="enable-background:new 0 0 500 500;" xml:space="preserve"><path d="M335,31H164.9v37.3H335V31z M159,19H341c3.3,0,6,2.7,6,6v19.8l68.8-0.1c3.3,0,6,2.7,6,6h0V475c0,3.3-2.7,6-6,6H84.2  c-3.3,0-6-2.7-6-6V51.1c0-3.3,2.7-6,6-6h68.8V25C152.9,21.7,155.6,19,159,19L159,19z M347,56.8v17.5c0,3.3-2.7,6-6,6H159  c-3.3,0-6-2.7-6-6V57.1H90.2V469h319.6V56.6L347,56.8z M168.3,180c-2.5,0-4.7-1.6-5.6-3.8l-17-35.2c-20.6,14.1-23.4,43.5-5.7,61.2  c23.2,23.2,63,9.9,67.8-22.3H168.3z M179.5,168h28.3c-1.4-9.3-6-17.6-12.7-23.6L179.5,168z M156.5,135.9l12.6,26.1l16-24.2  C176.2,133.6,166,132.9,156.5,135.9L156.5,135.9z M168.3,122.1c28.7,0,52,23.3,52,52c0,28.7-23.3,52-52,52c-28.7,0-52-23.3-52-52  C116.3,145.3,139.6,122.1,168.3,122.1L168.3,122.1z M192.1,366.7h-36v52h36V366.7z M150.1,354.7h42v-49.3c0-3.3,2.7-6,6-6h48  c3.3,0,6,2.7,6,6v23.9h36v-50.6c0-3.3,2.7-6,6-6h48c3.3,0,6,2.7,6,6v146c0,3.3-2.7,6-6,6H150.1c-3.3,0-6-2.7-6-6v-64  C144.1,357.4,146.8,354.7,150.1,354.7L150.1,354.7z M151.7,301.8c-2.6,2.1-6.3,1.6-8.4-1c-2.1-2.6-1.6-6.3,1-8.4l78.8-62.6  c2.3-1.8,5.5-1.7,7.6,0.2l31.9,25.6l71.9-57.9h-13.9c-3.3,0-6-2.7-6-6c0-3.3,2.7-6,6-6H352c3.8,0,6.9,3.5,5.7,7.8l-6.9,30.6  c-0.7,3.2-3.9,5.3-7.1,4.6c-3.2-0.7-5.3-3.9-4.6-7.1l3.4-15l-76.1,61.4c-2.2,1.8-5.3,1.9-7.6,0.1l-32-25.7L151.7,301.8z M336,284.7  h-36v134h36V284.7z M288,341.3h-36v77.4h36V341.3z M240.1,311.4h-36v107.3h36V311.4z"/></svg>