<svg xmlns="http://www.w3.org/2000/svg" version="1.1" viewBox="-5.0 -10.0 110.0 135.0">
 <path d="m94.738 34.586c-1.0195-9.082-5.625-16.891-12.246-22.172-6.6211-5.2852-15.262-8.043-24.344-7.0195-9.082 1.0195-16.891 5.625-22.172 12.246-5.2852 6.6211-8.043 15.262-7.0195 24.344 1.0195 9.082 5.625 16.891 12.246 22.172 6.6211 5.2852 15.262 8.043 24.344 7.0195 9.082-1.0195 16.891-5.625 22.172-12.246 5.2852-6.6211 8.043-15.258 7.0195-24.344zm-22.418 15.277c0.66797 0 1.2109 0.75781 1.2109 1.6914 0 0.93359-0.54297 1.6914-1.2109 1.6914-0.66797 0-1.2109-0.75781-1.2109-1.6914 0-0.93359 0.54297-1.6914 1.2109-1.6914zm-42.465 14.238 0.71094 0.62891 3.9805-4.5195c-2.168-2.6953-3.9531-5.7305-5.2578-9.0312l-14.574 0.14453v9.6992c0.94141 0.19141 1.7773 0.65625 2.4297 1.3086 0.86719 0.86719 1.4023 2.0664 1.4023 3.3867 0 1.3242-0.53516 2.5195-1.4023 3.3867-0.86719 0.86719-2.0664 1.4023-3.3867 1.4023-1.3242 0-2.5195-0.53516-3.3867-1.4023-0.86719-0.86719-1.4023-2.0664-1.4023-3.3867 0-1.3242 0.53516-2.5195 1.4023-3.3867 0.65234-0.65234 1.4922-1.1172 2.4297-1.3086l0.003907-10.645h0.003906c0-0.52344 0.42188-0.94922 0.94531-0.95312l14.852-0.14453c-0.74609-2.2617-1.2695-4.6289-1.5469-7.0898-0.11328-0.99219-0.17969-1.9844-0.20703-2.9648l-14.223-0.13672c-0.19141 0.9375-0.65625 1.7734-1.3047 2.4258-0.86719 0.86719-2.0664 1.4023-3.3867 1.4023-1.3242 0-2.5195-0.53516-3.3867-1.4023-0.86719-0.86719-1.4023-2.0664-1.4023-3.3867 0-1.3242 0.53516-2.5195 1.4023-3.3867 0.86719-0.86719 2.0664-1.4023 3.3867-1.4023 1.3242 0 2.5195 0.53516 3.3867 1.4023 0.65625 0.65625 1.1211 1.5 1.3086 2.4414l14.219 0.13672c0.089844-3.4766 0.69922-6.8516 1.7539-10.035l-14.848-0.14453c-0.52344-0.003906-0.94531-0.42969-0.94531-0.95312h-0.003906l-0.003906-10.637c-0.94141-0.19141-1.7773-0.65625-2.4297-1.3086-0.86719-0.86719-1.4023-2.0664-1.4023-3.3867 0-1.3242 0.53516-2.5195 1.4023-3.3867s2.0664-1.4023 3.3867-1.4023c1.3242 0 2.5195 0.53516 3.3867 1.4023 0.86719 0.86328 1.4023 2.0625 1.4023 3.3867s-0.53516 2.5195-1.4023 3.3867c-0.65234 0.65234-1.4922 1.1172-2.4297 1.3086v9.6992l14.574 0.14062c1.2852-3.2305 3.0391-6.2422 5.1875-8.9375 5.5898-7.0039 13.852-11.879 23.457-12.957 9.6055-1.082 18.738 1.8359 25.742 7.4258 7.0039 5.5898 11.879 13.852 12.957 23.457 1.082 9.6055-1.8359 18.738-7.4258 25.742-5.5898 7.0039-13.852 11.875-23.457 12.957-8.082 0.91016-15.828-1.0117-22.254-4.9727l-3.9805 4.5156 0.73047 0.64453c0.39453 0.34766 0.43359 0.95312 0.085938 1.3477l-19.199 21.789c-0.34766 0.39453-0.95312 0.43359-1.3477 0.085937l-10.395-9.1602c-0.39453-0.34766-0.43359-0.95312-0.085937-1.3477l19.203-21.789c0.34375-0.39844 0.94922-0.4375 1.3438-0.089844zm2.1484 1.8906 3.8008-4.3086c1.293 1.4375 2.7031 2.7656 4.2109 3.9688 0.60938 0.48438 1.2344 0.94922 1.875 1.3945l-3.7969 4.3086zm6.2695 8.0742-17.941 20.355-8.9609-7.8984 17.941-20.355 0.71094 0.625 7.5117 6.6211 0.007813 0.003907 0.003906 0.003906zm51.199-38.887c0.85547 7.6289-1.457 14.887-5.8945 20.449-4.4375 5.5586-10.992 9.4297-18.621 10.285-7.6289 0.85547-14.887-1.457-20.449-5.8945-5.5586-4.4375-9.4297-10.996-10.285-18.621-0.85547-7.6289 1.457-14.887 5.8945-20.445s10.996-9.4297 18.621-10.285c7.6289-0.85547 14.887 1.457 20.445 5.8945 5.5625 4.4297 9.4297 10.988 10.289 18.617zm-9.0977-20.117c5.9258 4.7305 10.055 11.715 10.988 19.84 0.007813 0.042968 0.011719 0.085937 0.015625 0.12891 0.89844 8.1289-1.5742 15.855-6.3047 21.785-4.7305 5.9258-11.715 10.055-19.84 10.988-0.042969 0.007812-0.085937 0.011718-0.12891 0.015624-8.1289 0.89844-15.855-1.5742-21.785-6.3047-5.9453-4.7422-10.078-11.754-10.996-19.906s1.5586-15.902 6.3008-21.844c4.7422-5.9453 11.754-10.078 19.906-10.996 8.1484-0.92188 15.902 1.5508 21.844 6.293zm-6.207 30.762c0-0.52734 0.42969-0.95703 0.95703-0.95703s0.95703 0.42969 0.95703 0.95703v1.6172c0 0.52734-0.42969 0.95703-0.95703 0.95703s-0.95703-0.42969-0.95703-0.95703zm-5.4531 0c0-0.52734 0.42969-0.95703 0.95703-0.95703s0.95703 0.42969 0.95703 0.95703v1.6172c0 0.52734-0.42969 0.95703-0.95703 0.95703s-0.95703-0.42969-0.95703-0.95703zm3.6836-6.1094c2.5469 0 4.8555 1.0312 6.5234 2.7031 1.668 1.668 2.7031 3.9766 2.7031 6.5234s-1.0312 4.8555-2.7031 6.5234c-1.668 1.668-3.9766 2.7031-6.5234 2.7031-2.5469 0-4.8555-1.0352-6.5234-2.7031-1.668-1.668-2.7031-3.9766-2.7031-6.5234s1.0352-4.8555 2.7031-6.5234c1.668-1.6719 3.9766-2.7031 6.5234-2.7031zm5.1719 4.0547c1.3242 1.3242 2.1406 3.1523 2.1406 5.1719 0 2.0195-0.82031 3.8477-2.1406 5.1719-1.3242 1.3242-3.1523 2.1406-5.1719 2.1406-2.0195 0-3.8477-0.82031-5.1719-2.1406-1.3242-1.3242-2.1406-3.1523-2.1406-5.1719 0-2.0195 0.82031-3.8477 2.1406-5.1719 1.3242-1.3242 3.1523-2.1406 5.1719-2.1406 2.0195-0.003906 3.8477 0.81641 5.1719 2.1406zm-24.395-12.66c0.36328-0.38281 0.96484-0.39844 1.3477-0.035156 0.38281 0.36328 0.39844 0.96484 0.035156 1.3477-0.39062 0.41016-0.85938 0.74219-1.3828 0.96484-0.50781 0.21875-1.0664 0.33984-1.6484 0.33984-0.58594 0-1.1406-0.12109-1.6484-0.33984-0.52344-0.22656-0.99219-0.55469-1.3828-0.96484-0.36328-0.38281-0.34766-0.98438 0.035156-1.3477s0.98438-0.34766 1.3477 0.035156c0.21094 0.22266 0.46484 0.39844 0.75391 0.52344 0.27344 0.11719 0.57422 0.18359 0.89453 0.18359 0.32031 0 0.62109-0.066406 0.89453-0.18359 0.28906-0.125 0.54688-0.30469 0.75391-0.52344zm0.19922-6.4492c0-0.52734 0.42969-0.95703 0.95703-0.95703 0.52734 0 0.95703 0.42969 0.95703 0.95703v1.6641c0 0.52734-0.42969 0.95703-0.95703 0.95703-0.52734 0-0.95703-0.42969-0.95703-0.95703zm-5.6055 0c0-0.52734 0.42969-0.95703 0.95703-0.95703 0.52734 0 0.95703 0.42969 0.95703 0.95703v1.6641c0 0.52734-0.42969 0.95703-0.95703 0.95703-0.52734 0-0.95703-0.42969-0.95703-0.95703zm3.7578-6.2539c2.6133 0 4.9766 1.0586 6.6875 2.7695 1.7109 1.7109 2.7695 4.0742 2.7695 6.6875s-1.0586 4.9766-2.7695 6.6875c-1.7109 1.7109-4.0742 2.7695-6.6875 2.7695-2.6133 0-4.9766-1.0586-6.6875-2.7695-1.7109-1.7109-2.7695-4.0742-2.7695-6.6875s1.0586-4.9766 2.7695-6.6875c1.7109-1.7109 4.0742-2.7695 6.6875-2.7695zm5.3359 4.1211c1.3633 1.3633 2.2109 3.25 2.2109 5.3359 0 2.082-0.84375 3.9688-2.2109 5.3359-1.3633 1.3672-3.25 2.2109-5.3359 2.2109-2.082 0-3.9688-0.84375-5.3359-2.2109-1.3672-1.3672-2.2109-3.2539-2.2109-5.3359s0.84375-3.9688 2.2109-5.3359c1.3633-1.3633 3.25-2.2109 5.3359-2.2109 2.082 0.003906 3.9688 0.84766 5.3359 2.2109zm13.352 9.957c-0.52734 0-0.95703-0.42969-0.95703-0.95703s0.42969-0.95703 0.95703-0.95703h4.3672c0.52734 0 0.95703 0.42969 0.95703 0.95703s-0.42969 0.95703-0.95703 0.95703zm3.8945-7.668c0-0.52734 0.42969-0.95703 0.95703-0.95703s0.95703 0.42969 0.95703 0.95703v1.582c0 0.52734-0.42969 0.95703-0.95703 0.95703s-0.95703-0.42969-0.95703-0.95703zm-5.3359 0c0-0.52734 0.42969-0.95703 0.95703-0.95703 0.52734 0 0.95703 0.42969 0.95703 0.95703v1.582c0 0.52734-0.42969 0.95703-0.95703 0.95703-0.52734 0-0.95703-0.42969-0.95703-0.95703zm3.625-6c2.4961 0 4.7617 1.0117 6.3984 2.6484 1.6367 1.6367 2.6484 3.8984 2.6484 6.3984s-1.0117 4.7617-2.6484 6.3984-3.8984 2.6484-6.3984 2.6484-4.7617-1.0117-6.3984-2.6484-2.6484-3.8984-2.6484-6.3984 1.0117-4.7617 2.6484-6.3984c1.6367-1.6367 3.8984-2.6484 6.3984-2.6484zm5.043 4.0039c1.2891 1.293 2.0898 3.0742 2.0898 5.0469 0 1.9727-0.80078 3.7539-2.0898 5.043-1.293 1.293-3.0742 2.0898-5.043 2.0898-1.9727 0-3.7539-0.79688-5.043-2.0898-1.293-1.2891-2.0898-3.0742-2.0898-5.043 0-1.9727 0.79688-3.7539 2.0898-5.0469 1.2891-1.2891 3.0742-2.0898 5.043-2.0898s3.7539 0.79688 5.043 2.0898zm-22.992 29.207c0.36328 0.38281 0.34766 0.98438-0.035157 1.3477-0.38281 0.36328-0.98437 0.34766-1.3477-0.035156-0.19531-0.20703-0.43359-0.375-0.70703-0.48828-0.25391-0.10937-0.53906-0.16797-0.83594-0.16797-0.29688 0-0.58203 0.058594-0.83594 0.16797-0.26953 0.11719-0.50781 0.28516-0.70312 0.48828-0.36328 0.38281-0.96484 0.39844-1.3477 0.035156-0.38281-0.36328-0.39844-0.96484-0.035157-1.3477 0.375-0.39453 0.82813-0.71484 1.332-0.92969 0.48828-0.21094 1.0273-0.32812 1.5898-0.32812s1.1016 0.11719 1.5898 0.32812c0.50781 0.21484 0.96094 0.53516 1.3359 0.92969zm-1.1523-6.2031c0-0.52734 0.42969-0.95703 0.95703-0.95703s0.95703 0.42969 0.95703 0.95703v1.6172c0 0.52734-0.42969 0.95703-0.95703 0.95703s-0.95703-0.42969-0.95703-0.95703zm-5.4531 0c0-0.52734 0.42969-0.95703 0.95703-0.95703 0.52734 0 0.95703 0.42969 0.95703 0.95703v1.6172c0 0.52734-0.42969 0.95703-0.95703 0.95703-0.52734 0-0.95703-0.42969-0.95703-0.95703zm3.6836-6.1094c2.5469 0 4.8555 1.0312 6.5234 2.7031 1.668 1.668 2.7031 3.9766 2.7031 6.5234s-1.0312 4.8555-2.7031 6.5234c-1.668 1.668-3.9766 2.7031-6.5234 2.7031s-4.8555-1.0352-6.5234-2.7031c-1.668-1.668-2.7031-3.9766-2.7031-6.5234s1.0312-4.8555 2.7031-6.5234c1.6719-1.6719 3.9766-2.7031 6.5234-2.7031zm5.1719 4.0547c1.3242 1.3242 2.1406 3.1523 2.1406 5.1719 0 2.0195-0.82031 3.8477-2.1406 5.1719-1.3242 1.3242-3.1523 2.1406-5.1719 2.1406-2.0195 0-3.8477-0.82031-5.1719-2.1406-1.3242-1.3242-2.1406-3.1523-2.1406-5.1719 0-2.0195 0.82031-3.8477 2.1406-5.1719 1.3242-1.3242 3.1523-2.1406 5.1719-2.1406 2.0195-0.003906 3.8477 0.81641 5.1719 2.1406zm-50.801-7.6719c-0.51953 0.51953-0.84375 1.2422-0.84375 2.0352 0 0.79297 0.32031 1.5156 0.84375 2.0352 0.51953 0.51953 1.2422 0.84375 2.0352 0.84375 0.79297 0 1.5156-0.32031 2.0352-0.84375 0.51953-0.51953 0.84375-1.2383 0.84375-2.0352 0-0.79687-0.32031-1.5156-0.84375-2.0352-0.51953-0.51953-1.2422-0.84375-2.0352-0.84375-0.79688 0-1.5156 0.32031-2.0352 0.84375zm4.9844 29.621c0 0.79297 0.32031 1.5156 0.84375 2.0352 0.51953 0.51953 1.2422 0.84375 2.0352 0.84375s1.5156-0.32031 2.0352-0.84375c0.51953-0.51953 0.84375-1.2422 0.84375-2.0352s-0.32031-1.5156-0.84375-2.0352c-0.51953-0.51953-1.2383-0.84375-2.0352-0.84375-0.79297 0-1.5156 0.32031-2.0352 0.84375-0.51953 0.51953-0.84375 1.2383-0.84375 2.0352zm0.84375-56.898c-0.51953 0.51953-0.84375 1.2422-0.84375 2.0352s0.32031 1.5156 0.84375 2.0352c0.51953 0.51953 1.2422 0.84375 2.0352 0.84375s1.5156-0.32031 2.0352-0.84375c0.51953-0.51953 0.84375-1.2422 0.84375-2.0352s-0.32031-1.5156-0.84375-2.0352c-0.51953-0.51953-1.2422-0.84375-2.0352-0.84375-0.79688 0-1.5156 0.32031-2.0352 0.84375z" fill-rule="evenodd"/>
</svg>