<svg xmlns="http://www.w3.org/2000/svg" version="1.1" viewBox="-5.0 -10.0 110.0 135.0">
 <path d="m51.391 29.91c4.5586 0.26562 8.8945 2.0625 12.309 5.0977l8.1211-8.1211c-0.65234-0.98438-1-2.1406-1-3.3203 0-0.40625 0.042969-0.81641 0.125-1.2148l-12.305-5.2891c-1.5312 2.6484-4.2148 4.4258-7.25 4.8086zm-27.902 40.992c1.1797-0.003906 2.3359 0.34375 3.3203 0.99609l8.125-8.125c-3.0352-3.4102-4.832-7.7422-5.1016-12.301h-8.0391c-0.57812 4.6328-4.3516 8.2109-9.0078 8.5391h-0.011718c-0.035157 0-0.078126 0-0.12109 0.011719h-0.019532l-0.070312 0.003906h-0.24609c-0.03125 0-0.0625 0.003906-0.097656 0.003906h-0.26953c-0.03125 0-0.0625-0.003906-0.10547-0.003906h-0.23828l-0.070313-0.003906h-0.019531c-0.042969-0.003907-0.085937-0.003907-0.12109-0.011719h-0.011719c-2.7656-0.19531-5.3203-1.5547-7.0273-3.7383-1.7031-2.1875-2.4023-4.9961-1.918-7.7266s2.1016-5.125 4.457-6.5938c2.3516-1.4648 5.2188-1.8672 7.8828-1.0977l5.2617-12.32c-1.9883-1.3867-2.957-3.8242-2.457-6.1992 0.5-2.3711 2.3711-4.2109 4.75-4.6758 2.3789-0.46094 4.8047 0.54688 6.1562 2.5586 1.3516 2.0156 1.3672 4.6406 0.039063 6.668l8.1211 8.1211h-0.003907c3.4141-3.0352 7.75-4.832 12.305-5.0977v-8.0391c-3.8164-0.48047-6.9961-3.1484-8.1289-6.8242-1.1367-3.6758-0.011718-7.6758 2.875-10.219 2.8828-2.5469 6.9922-3.1641 10.496-1.582 3.5078 1.582 5.7578 5.0703 5.7578 8.918 0.003906 0.89844-0.12109 1.7969-0.36328 2.6641l12.316 5.293v-0.003906c0.20312-0.29297 0.43359-0.56641 0.6875-0.82031 1.6484-1.6484 4.0977-2.1992 6.293-1.418 2.1953 0.78125 3.7461 2.7578 3.9805 5.0742 0.23438 2.3203-0.88281 4.5664-2.875 5.7734-1.9961 1.207-4.5039 1.1602-6.4492-0.12109l-8.1211 8.125c3.0352 3.4102 4.832 7.7461 5.0977 12.305h7.6953c0.46875-3.7539 3.0625-6.8984 6.6562-8.0781 3.5938-1.1797 7.5469-0.17969 10.148 2.5664 2.6016 2.7461 3.3906 6.7461 2.0195 10.27-1.3711 3.5273-4.6523 5.9453-8.4258 6.2148-0.042969 0-0.078125 0-0.12109 0.011719h-0.019531l-0.070312 0.003907h-0.25391c-0.03125 0-0.0625 0.003906-0.097656 0.003906h-0.21094c-0.0625 0-0.12891-0.003906-0.19531-0.003906h-0.074219 0.003906c-0.69141-0.023438-1.375-0.12109-2.043-0.28516l-5.2266 12.238c0.29297 0.20703 0.57031 0.4375 0.82812 0.69141 1.6484 1.6484 2.1992 4.0977 1.418 6.2969-0.78125 2.1953-2.7578 3.7461-5.0742 3.9805-2.3203 0.23828-4.5703-0.88281-5.7773-2.8789-1.207-1.9922-1.1602-4.5039 0.125-6.4492l-8.1211-8.1211c-3.2773 2.9141-7.4102 4.6914-11.777 5.0586l-0.070313 0.003906-0.1875 0.015625h-0.27734l0.003906 7.6367c4.8594 0.86719 8.3086 5.2188 8.0508 10.145-0.26172 4.9297-4.1523 8.8945-9.0742 9.2461h-0.12109-0.09375l-0.070313 0.007813-0.050781-0.003906c-0.03125 0-0.0625 0.003906-0.09375 0.003906h-0.52734c-0.03125 0-0.0625-0.003906-0.097656-0.003906h-0.042969l-0.074219-0.007813h-0.089843-0.12109-0.003906v0.003906c-2.8945-0.21094-5.5469-1.6914-7.2422-4.0469-1.6953-2.3555-2.2578-5.3438-1.5352-8.1523l-11.746-5.0234c-0.20703 0.29688-0.44141 0.57422-0.69531 0.83203-1.4258 1.4258-3.4688 2.0469-5.4453 1.6523-1.9766-0.39453-3.6289-1.7461-4.3984-3.6094-0.77344-1.8633-0.5625-3.9883 0.55469-5.6641 1.1211-1.6758 3.0039-2.6836 5.0195-2.6836zm5.0391 2.7148c0.64844 0.98437 0.99219 2.1406 0.99219 3.3203 0 0.40625-0.042969 0.8125-0.12109 1.207l11.684 4.9922c0.44922-0.8125 1.0078-1.5586 1.6641-2.2148 1.6562-1.6641 3.8594-2.6719 6.1992-2.8398v-7.4883h-0.26953l-0.1875-0.015625-0.066406-0.019531c-4.3711-0.37109-8.5-2.1445-11.777-5.0625zm-2.4922 0.77344c-1.2148-1.2109-3.1172-1.4023-4.543-0.44922-1.4258 0.95312-1.9805 2.7812-1.3281 4.3672 0.65625 1.5859 2.3398 2.4883 4.0234 2.1523 1.6836-0.33203 2.8984-1.8086 2.8984-3.5234 0-0.95703-0.37891-1.8711-1.0508-2.5469zm50.82-3.4883c0.40625 0 0.80859 0.039062 1.207 0.12109l5.1992-12.16c-0.83203-0.45312-1.5938-1.0234-2.2695-1.6914-1.5352-1.5391-2.5117-3.543-2.7812-5.6992h-7.6953c-0.26562 4.5586-2.0625 8.8945-5.0977 12.305l8.1211 8.1172c0.98438-0.65234 2.1367-1 3.3203-0.99609zm2.5508 3.4883h-0.003906c-0.67578-0.67578-1.5898-1.0547-2.5469-1.0547s-1.8711 0.37891-2.5469 1.0547c-1.0273 1.0312-1.3359 2.5781-0.77734 3.9219s1.8711 2.2188 3.3242 2.2188 2.7656-0.875 3.3242-2.2188c0.55859-1.3438 0.25-2.8906-0.77734-3.9219zm0-53.367h-0.003906c-1.2148-1.2188-3.125-1.4102-4.5586-0.45703-1.4336 0.95703-1.9922 2.793-1.332 4.3828 0.66016 1.5938 2.3516 2.4961 4.0391 2.1602 1.6914-0.33594 2.9062-1.8164 2.9062-3.5391 0-0.95703-0.37891-1.8711-1.0547-2.5469zm-57.125 8.457-5.2617 12.316c0.72656 0.42578 1.3945 0.94141 1.9883 1.5312 1.5391 1.5391 2.5195 3.5469 2.7891 5.7031h8.0352c0.26953-4.5586 2.0664-8.8945 5.1055-12.305l-8.125-8.125h-0.003906c-1.332 0.87891-2.9609 1.1953-4.5234 0.875zm3.7539-3.3672h0.003906c1.2188-1.2148 1.4062-3.1211 0.45313-4.5547-0.95313-1.4336-2.7852-1.9922-4.375-1.3359-1.5938 0.65625-2.4961 2.3477-2.1641 4.0352 0.33594 1.6875 1.8125 2.9062 3.5352 2.9062 0.95703 0.003907 1.875-0.375 2.5508-1.0508zm-13.949 17.781c1.3086 0 2.5625 0.51953 3.4922 1.4453 0.92578 0.92578 1.4453 2.1836 1.4453 3.4922 0 1.1914-0.42969 2.3438-1.2148 3.2422 0.15234 0.0625 0.30859 0.13281 0.45703 0.19922h-0.003906c0.82812 0.39062 1.5938 0.89453 2.2773 1.5 1.2344-2.2734 1.1836-5.0352-0.14062-7.2578-1.3242-2.2266-3.7227-3.5898-6.3125-3.5898-2.5898 0-4.9922 1.3633-6.3164 3.5898-1.3203 2.2227-1.375 4.9844-0.14062 7.2578 0.6875-0.60547 1.4531-1.1094 2.2812-1.5 0.14844-0.070313 0.30078-0.13672 0.44922-0.19922-1.2656-1.4609-1.5664-3.5273-0.76562-5.2891 0.80078-1.7578 2.5547-2.8906 4.4922-2.8906zm1.7695 3.1562c-0.84375-0.83594-2.1641-0.96484-3.1523-0.30078s-1.3711 1.9336-0.91406 3.0312c0.45703 1.1016 1.6289 1.7227 2.7969 1.4922 1.168-0.23438 2.0078-1.2617 2.0078-2.4492 0-0.66406-0.26562-1.3047-0.73828-1.7734zm3.1875 8.6328c-0.54297-0.49219-1.1523-0.89844-1.8125-1.2148-1.9922-0.93359-4.2969-0.93359-6.2852 0-0.66016 0.31641-1.2734 0.72266-1.8164 1.2148 1.3086 1.1914 3 1.8711 4.7656 1.918h0.38672c1.7656-0.046874 3.457-0.72656 4.7617-1.918zm32.633 25.797c1.9336 0 3.6914 1.1328 4.4922 2.8906 0.80078 1.7617 0.5 3.8281-0.76953 5.2891 0.15234 0.058594 0.30078 0.12891 0.45703 0.19531 0.82422 0.39453 1.5898 0.89844 2.2734 1.5 1.2422-2.2773 1.1914-5.0391-0.13281-7.2695-1.3242-2.2305-3.7266-3.5977-6.3203-3.5977s-4.9961 1.3672-6.3203 3.5977c-1.3281 2.2305-1.3789 4.9922-0.13672 7.2695 0.6875-0.60156 1.4531-1.1055 2.2773-1.5 0.15234-0.070313 0.30078-0.13672 0.45703-0.19531-1.2734-1.4609-1.5742-3.5273-0.77344-5.2891 0.80078-1.7617 2.5586-2.8906 4.4961-2.8906zm1.7734 3.168h-0.003907c-0.84375-0.84375-2.168-0.97266-3.1602-0.30859-0.99219 0.66797-1.3789 1.9414-0.91797 3.043 0.45703 1.1016 1.6328 1.7305 2.8047 1.4961 1.168-0.23828 2.0117-1.2656 2.0117-2.4609 0-0.66406-0.26562-1.3008-0.73828-1.7695zm3.1758 8.6133c-1.3516-1.2383-3.1211-1.9219-4.9531-1.918-1.0859 0-2.1562 0.23828-3.1406 0.69922-0.66406 0.3125-1.2734 0.72656-1.8125 1.2188 1.3047 1.1914 2.9961 1.8711 4.7617 1.918h0.003906 0.078125 0.21094 0.078124 0.007813c1.7695-0.046876 3.4609-0.72656 4.7656-1.918zm33.285-49.367c1.9336 0 3.6914 1.1289 4.4922 2.8906 0.80469 1.7617 0.50391 3.8281-0.76953 5.2891 0.15234 0.0625 0.30859 0.13281 0.45703 0.19922 0.82422 0.39062 1.5898 0.89453 2.2773 1.5 1.2344-2.2734 1.1797-5.0352-0.14453-7.2578-1.3242-2.2266-3.7227-3.5898-6.3125-3.5898s-4.9883 1.3633-6.3125 3.5898c-1.3242 2.2227-1.3789 4.9844-0.14062 7.2578 0.68359-0.60547 1.4531-1.1094 2.2812-1.5 0.14844-0.070313 0.29688-0.13672 0.44922-0.19922-1.2695-1.4609-1.5703-3.5273-0.76953-5.2891 0.80469-1.7578 2.5586-2.8906 4.4922-2.8906zm1.7734 3.1562c-0.84766-0.84375-2.1758-0.97266-3.168-0.30469-0.99609 0.66406-1.3828 1.9414-0.92188 3.0469s1.6367 1.7305 2.8125 1.4961c1.1719-0.23437 2.0156-1.2695 2.0156-2.4648 0-0.66406-0.26562-1.3047-0.73828-1.7734zm3.1797 8.6328c-0.53906-0.49219-1.1484-0.90234-1.8125-1.2188-2.6953-1.2695-5.8906-0.78906-8.0938 1.2188 1.3047 1.1953 2.9961 1.875 4.7617 1.9219h0.38672c1.7656-0.046875 3.457-0.72656 4.7578-1.9219zm-42.688-49.879c1.9336 0.003906 3.6875 1.1328 4.4883 2.8945 0.80078 1.7578 0.5 3.8242-0.76562 5.2852 0.15234 0.0625 0.30078 0.12891 0.45312 0.19922h-0.003906c0.82812 0.39062 1.5977 0.89844 2.2852 1.5 1.2422-2.2773 1.1914-5.043-0.13281-7.2734-1.3242-2.2305-3.7266-3.5977-6.3242-3.5977-2.5938 0-4.9961 1.3672-6.3203 3.5977-1.3242 2.2305-1.375 4.9961-0.13281 7.2734 0.68359-0.60156 1.4531-1.1094 2.2773-1.5 0.14844-0.074219 0.30078-0.13672 0.45703-0.19922-1.2695-1.4609-1.5703-3.5273-0.76953-5.2891 0.80078-1.7578 2.5586-2.8906 4.4922-2.8906zm1.7734 3.168-0.003907-0.003906c-0.98047-0.97266-2.5625-0.97266-3.543 0-0.71484 0.71875-0.92969 1.7969-0.54297 2.7305 0.38672 0.9375 1.3008 1.5469 2.3164 1.5469 1.0117 0 1.9219-0.61328 2.3125-1.5469 0.38672-0.93359 0.17188-2.0117-0.54297-2.7305zm3.1836 8.625-0.003906-0.003906c-0.53906-0.49609-1.1523-0.90625-1.8125-1.2188-1.9922-0.93359-4.2969-0.93359-6.2852 0-0.66406 0.31641-1.2734 0.72656-1.8164 1.2188 1.3086 1.1914 2.9961 1.8711 4.7656 1.9219h0.38672c1.7656-0.046875 3.457-0.72656 4.7617-1.9219zm-4.9531 19.938-0.003907-0.003906c3.8555 0 7.332 2.3242 8.8086 5.8867 1.4727 3.5625 0.65625 7.6641-2.0742 10.391-0.40234 0.40625-0.83984 0.77344-1.3086 1.0977 3.5508 0.98047 6.7695 2.9062 9.3086 5.5781 2.5039-3.6055 3.5977-8.0039 3.0742-12.363-0.51953-4.3594-2.6211-8.375-5.9062-11.289-3.2812-2.9141-7.5195-4.5234-11.91-4.5234s-8.6289 1.6094-11.91 4.5234c-3.2852 2.9141-5.3867 6.9297-5.9062 11.289-0.52344 4.3594 0.57031 8.7578 3.0742 12.363 2.5391-2.668 5.7578-4.5977 9.3086-5.5781-3.4297-2.375-4.918-6.7031-3.6719-10.688 1.2461-3.9805 4.9375-6.6914 9.1094-6.6875zm5.0234 4.5117-0.003906-0.003906c-2.3984-2.3984-6.1562-2.7695-8.9727-0.88672-2.8203 1.8828-3.918 5.4961-2.6211 8.6289 1.2969 3.1328 4.625 4.9141 7.9492 4.25 3.3281-0.66016 5.7227-3.5781 5.7227-6.9688 0.003906-1.8828-0.74609-3.6914-2.0781-5.0234zm8.1797 20.352c-3.3984-3.6992-8.1914-5.8047-13.211-5.8047-5.0234 0-9.8164 2.1055-13.211 5.8047 0.17187 0.17969 0.34375 0.36719 0.51953 0.54297 3.1914 3.1992 7.4766 5.0742 11.992 5.2461h0.015625 0.21875 0.015625c0.074219 0 0.14453 0.003906 0.21875 0.003906h0.47656c0.070312 0 0.14453-0.003906 0.21094-0.003906h0.015625 0.21875 0.015625-0.003906c4.5156-0.17578 8.7969-2.0469 11.988-5.2461 0.17969-0.17578 0.35156-0.35938 0.51953-0.54297z"/>
<text x="0.0" y="117.5" font-size="5.0" font-weight="bold" font-family="Arbeit Regular, Helvetica, Arial-Unicode, Arial, Sans-serif" fill="#000000">Created by Ifanicon</text><text x="0.0" y="122.5" font-size="5.0" font-weight="bold" font-family="Arbeit Regular, Helvetica, Arial-Unicode, Arial, Sans-serif" fill="#000000">from Noun Project</text></svg>