<svg xmlns="http://www.w3.org/2000/svg" data-name="Layer 1" viewBox="0 0 95 118.75" x="0px" y="0px"><path d="M89.714,55.385c-1.358-1.895-4.182-2.96-7.189-.848l-.953.54a4.551,4.551,0,0,0-2.3-1.269,5.421,5.421,0,0,0-4.351,1.07L60.949,62.71c-.383-.068-.792-.138-1.235-.213A58.821,58.821,0,0,1,45.8,58.7c-10.056-4.278-14.374-2.812-18.6-.621A54.109,54.109,0,0,0,20.507,62.1a3.418,3.418,0,0,0-4.5-1.2l-1.375.734a3.259,3.259,0,0,0-4.1-.873L5.992,63.19a3.346,3.346,0,0,0-1.391,4.3L14.946,92.161a2.956,2.956,0,0,0,1.767,1.647,3.35,3.35,0,0,0,2.692-.2l6.738-3.6A3.261,3.261,0,0,0,27.7,86.116l1.375-.734a3.421,3.421,0,0,0,1.74-3.679c.558.006,1.142.022,1.761.049a50.535,50.535,0,0,1,13.8,2.677,24.379,24.379,0,0,0,6.995,1.492,9.121,9.121,0,0,0,4.729-1.3.973.973,0,0,0,.1-.066L88.168,63.041A5.407,5.407,0,0,0,89.714,55.385Zm-13.5,1.653a1.324,1.324,0,0,0,.119-.075,3.1,3.1,0,0,1,2.414-.7,1.93,1.93,0,0,1,.451.157L65.467,64.2a7.34,7.34,0,0,0-1.041-.557ZM25.319,87.351a.734.734,0,0,1-.36.441l-6.738,3.6a.851.851,0,0,1-.665.05.463.463,0,0,1-.292-.25L6.92,66.521a.855.855,0,0,1,.256-1.113h0l4.541-2.424a.721.721,0,0,1,.345-.087.761.761,0,0,1,.662.393L25.266,86.785A.742.742,0,0,1,25.319,87.351Zm2.573-4.187-1.33.71-10.7-20.041,1.33-.71a.9.9,0,0,1,1.22.37l9.849,18.452A.9.9,0,0,1,27.892,83.164ZM86.7,61,56.785,82.48c-2.887,1.653-5.444.859-9.664-.452A52.745,52.745,0,0,0,32.686,79.24c-1.1-.047-2.1-.063-3.044-.048L21.71,64.332a51.174,51.174,0,0,1,6.646-4.023c3.282-1.7,6.675-3.46,16.459.7A61.082,61.082,0,0,0,59.3,64.976c1.229.208,2.29.388,3.008.584,1.051.287,2.8.946,2.68,2.126-.112,1.149-1.693,2.47-3.076,2.57a45.2,45.2,0,0,1-7.529-.31,45.222,45.222,0,0,0-8.446-.279,1.257,1.257,0,1,0,.228,2.5,42.883,42.883,0,0,1,7.978.278c1.965.189,3.98.382,6,.382.651,0,1.3-.02,1.951-.067,2.642-.19,5.164-2.448,5.4-4.832a3.633,3.633,0,0,0-.294-1.818l16.628-9.42a1.177,1.177,0,0,0,.112-.071c1.744-1.247,3.075-.7,3.74.228A2.92,2.92,0,0,1,86.7,61ZM20.745,85.2a1.257,1.257,0,0,1-2.272,1.078l-1.754-3.7A1.257,1.257,0,1,1,18.99,81.5Zm-3.752-4.787a1.254,1.254,0,0,1-1.674-.6l-.5-1.052a1.257,1.257,0,0,1,2.272-1.078l.5,1.053A1.255,1.255,0,0,1,16.993,80.411Zm36.7-24.879A27.266,27.266,0,1,0,26.424,28.266,27.3,27.3,0,0,0,53.69,55.532Zm0-52.018A24.752,24.752,0,1,1,28.938,28.266,24.78,24.78,0,0,1,53.69,3.514Zm0,46.99A22.238,22.238,0,1,0,31.452,28.266,22.263,22.263,0,0,0,53.69,50.5Zm0-41.962A19.724,19.724,0,1,1,33.966,28.266,19.746,19.746,0,0,1,53.69,8.542Zm-1.257,3.693V10.9a1.257,1.257,0,1,1,2.514,0v1.334a1.257,1.257,0,0,1-2.514,0ZM54.947,44.3v1.334a1.257,1.257,0,0,1-2.514,0V44.3a1.257,1.257,0,1,1,2.514,0Zm9.189-26.478a1.258,1.258,0,0,1,0-1.777l.944-.944a1.257,1.257,0,0,1,1.778,1.778l-.944.944a1.257,1.257,0,0,1-1.778,0ZM40.522,41.434a1.257,1.257,0,0,1,0-1.778l.944-.944a1.257,1.257,0,1,1,1.778,1.778l-.944.944a1.258,1.258,0,0,1-1.778,0ZM68.464,28.266a1.257,1.257,0,0,1,1.257-1.257h1.335a1.257,1.257,0,1,1,0,2.514H69.721A1.257,1.257,0,0,1,68.464,28.266Zm-29.548,0a1.257,1.257,0,0,1-1.257,1.257H36.325a1.257,1.257,0,1,1,0-2.514h1.334A1.257,1.257,0,0,1,38.916,28.266ZM64.136,40.49a1.257,1.257,0,0,1,1.778-1.778l.944.944a1.257,1.257,0,0,1-1.778,1.778ZM40.522,16.876A1.257,1.257,0,0,1,42.3,15.1l.944.944a1.257,1.257,0,0,1-1.778,1.778ZM53.69,31.745a3.447,3.447,0,0,0,1.4-.3l5.027,5.027A1.257,1.257,0,0,0,61.9,34.7L56.871,29.67a3.467,3.467,0,0,0-1.924-4.645V15.693a1.257,1.257,0,0,0-2.514,0v9.332a3.477,3.477,0,0,0,1.257,6.72Zm-.965-3.479a.965.965,0,1,1,.965.965A.966.966,0,0,1,52.725,28.266Z"/><text x="0" y="110" fill="#000000" font-size="5px" font-weight="bold" font-family="'Helvetica Neue', Helvetica, Arial-Unicode, Arial, Sans-serif">Created by Sunardi</text><text x="0" y="115" fill="#000000" font-size="5px" font-weight="bold" font-family="'Helvetica Neue', Helvetica, Arial-Unicode, Arial, Sans-serif">from the Noun Project</text></svg>