<svg xmlns="http://www.w3.org/2000/svg" xmlns:xlink="http://www.w3.org/1999/xlink" version="1.1" x="0px" y="0px" viewBox="0 0 98 122.5" style="enable-background:new 0 0 98 98;" xml:space="preserve"><style type="text/css">
	.st0{fill-rule:evenodd;clip-rule:evenodd;}
</style><path d="M88.204,3.088H9.796c-3.558,0-6.452,2.894-6.452,6.452v78.92c0,3.558,2.894,6.452,6.452,6.452h78.408  c3.558,0,6.452-2.894,6.452-6.452V9.54C94.656,5.982,91.762,3.088,88.204,3.088z M9.796,5.788h78.408  c2.069,0,3.751,1.683,3.751,3.751v6.512H6.045V9.54C6.045,7.471,7.728,5.788,9.796,5.788z M88.204,92.212H9.796  c-2.069,0-3.751-1.683-3.751-3.751V18.753h85.911V88.46C91.955,90.529,90.272,92.212,88.204,92.212z M50.918,10.92  c0-0.746,0.605-1.35,1.35-1.35h31.494c0.746,0,1.35,0.605,1.35,1.35s-0.605,1.35-1.35,1.35H52.268  C51.522,12.271,50.918,11.666,50.918,10.92z M12.324,10.92c0-0.746,0.605-1.35,1.35-1.35h2.785c0.746,0,1.35,0.605,1.35,1.35  s-0.605,1.35-1.35,1.35h-2.785C12.929,12.271,12.324,11.666,12.324,10.92z M21.688,10.92c0-0.746,0.605-1.35,1.35-1.35h2.785  c0.746,0,1.35,0.605,1.35,1.35s-0.605,1.35-1.35,1.35h-2.785C22.293,12.271,21.688,11.666,21.688,10.92z M31.052,10.92  c0-0.746,0.605-1.35,1.35-1.35h2.785c0.746,0,1.35,0.605,1.35,1.35s-0.605,1.35-1.35,1.35h-2.785  C31.657,12.271,31.052,11.666,31.052,10.92z M67.685,46.463H30.827c-1.733,0-3.142,1.409-3.142,3.142v21.125  c0,1.733,1.409,3.142,3.142,3.142h36.858c1.733,0,3.142-1.41,3.142-3.142V49.605C70.827,47.873,69.418,46.463,67.685,46.463z   M68.126,70.731c0,0.239-0.202,0.441-0.441,0.441H30.827c-0.239,0-0.441-0.202-0.441-0.441V49.605c0-0.239,0.202-0.441,0.441-0.441  h36.858c0.239,0,0.441,0.202,0.441,0.441V70.731z M57.495,58.175l-11.25-6.495c-0.721-0.416-1.581-0.416-2.301,0  c-0.721,0.416-1.151,1.161-1.151,1.993v12.99c0,0.832,0.43,1.577,1.15,1.993c0.36,0.208,0.756,0.312,1.151,0.312  c0.395,0,0.79-0.104,1.151-0.312l11.25-6.495c0,0,0,0,0,0c0.72-0.416,1.15-1.161,1.15-1.993  C58.645,59.336,58.215,58.591,57.495,58.175z M45.494,65.971V54.365l10.052,5.803L45.494,65.971z M69.477,81.171H41.869  c-0.586-1.746-2.236-3.009-4.177-3.009s-3.592,1.262-4.177,3.009h-4.479c-0.746,0-1.35,0.605-1.35,1.35s0.605,1.35,1.35,1.35h4.447  c0.557,1.795,2.233,3.102,4.209,3.102c1.976,0,3.652-1.307,4.209-3.102h27.576c0.746,0,1.35-0.605,1.35-1.35  S70.222,81.171,69.477,81.171z M37.692,84.273c-0.94,0-1.705-0.765-1.705-1.705c0-0.94,0.765-1.705,1.705-1.705  c0.94,0,1.705,0.765,1.705,1.705C39.397,83.508,38.632,84.273,37.692,84.273z M82.593,29.427l-5.057-0.471l-2.011-4.664  c-0.213-0.495-0.701-0.816-1.24-0.816c-0.539,0-1.027,0.321-1.24,0.816l-2.01,4.664l-5.057,0.471  c-0.537,0.05-0.992,0.415-1.159,0.927c-0.167,0.513-0.012,1.075,0.393,1.431l3.814,3.353l-1.115,4.955  c-0.118,0.526,0.087,1.072,0.524,1.389c0.436,0.317,1.019,0.344,1.483,0.069l4.368-2.591l4.368,2.591  c0.213,0.126,0.451,0.189,0.689,0.189c0.279,0,0.558-0.087,0.794-0.258c0.436-0.317,0.642-0.863,0.524-1.389l-1.115-4.955  l3.815-3.353c0.405-0.356,0.559-0.919,0.393-1.432C83.585,29.841,83.13,29.476,82.593,29.427z M77.16,33.639  c-0.371,0.326-0.534,0.829-0.426,1.311l0.603,2.68l-2.363-1.402c-0.212-0.126-0.451-0.189-0.689-0.189s-0.477,0.063-0.689,0.189  l-2.363,1.402l0.603-2.681c0.108-0.482-0.055-0.984-0.426-1.311l-2.063-1.814l2.736-0.255c0.492-0.046,0.919-0.356,1.115-0.81  l1.088-2.523l1.088,2.523c0.196,0.454,0.623,0.764,1.115,0.81l2.735,0.255L77.16,33.639z M43.997,35.138l-1.115,4.955  c-0.118,0.526,0.087,1.072,0.524,1.389c0.436,0.317,1.019,0.344,1.483,0.069l4.368-2.591l4.368,2.591  c0.213,0.126,0.451,0.189,0.689,0.189c0.279,0,0.558-0.087,0.794-0.258c0.436-0.317,0.642-0.863,0.524-1.389l-1.115-4.955  l3.815-3.353c0.405-0.356,0.559-0.919,0.393-1.432c-0.167-0.513-0.622-0.877-1.159-0.927l-5.057-0.471l-2.011-4.664  c-0.213-0.495-0.701-0.816-1.24-0.816c-0.539,0-1.027,0.321-1.24,0.816l-2.01,4.664l-5.057,0.471  c-0.537,0.05-0.992,0.415-1.159,0.927c-0.167,0.513-0.012,1.075,0.393,1.431L43.997,35.138z M47.054,31.57  c0.492-0.046,0.919-0.356,1.115-0.81l1.088-2.523l1.088,2.523c0.196,0.454,0.623,0.764,1.115,0.81l2.735,0.255l-2.064,1.814  c-0.371,0.326-0.534,0.829-0.426,1.311l0.603,2.68l-2.363-1.402c-0.212-0.126-0.451-0.189-0.689-0.189s-0.477,0.063-0.689,0.189  l-2.363,1.402l0.603-2.681c0.108-0.482-0.055-0.985-0.426-1.311l-2.063-1.814L47.054,31.57z M29.284,41.74  c0.279,0,0.558-0.087,0.794-0.258c0.436-0.317,0.642-0.863,0.524-1.389l-1.115-4.955l3.815-3.353  c0.405-0.356,0.559-0.919,0.393-1.432c-0.167-0.513-0.622-0.877-1.159-0.927l-5.057-0.471l-2.011-4.664  c-0.213-0.495-0.701-0.816-1.24-0.816c-0.539,0-1.027,0.321-1.24,0.816l-2.01,4.664l-5.057,0.471  c-0.537,0.05-0.992,0.415-1.159,0.927c-0.167,0.513-0.012,1.075,0.393,1.431l3.814,3.353l-1.115,4.955  c-0.118,0.526,0.087,1.072,0.524,1.389c0.436,0.317,1.019,0.344,1.483,0.069l4.368-2.591l4.368,2.591  C28.808,41.678,29.046,41.74,29.284,41.74z M24.916,36.228c-0.212-0.126-0.451-0.189-0.689-0.189c-0.238,0-0.477,0.063-0.689,0.189  l-2.363,1.402l0.603-2.681c0.108-0.482-0.055-0.984-0.426-1.311l-2.063-1.814l2.736-0.255c0.492-0.046,0.919-0.356,1.115-0.81  l1.088-2.523l1.088,2.523c0.196,0.454,0.623,0.764,1.115,0.81l2.735,0.255l-2.064,1.814c-0.371,0.326-0.534,0.829-0.426,1.311  l0.603,2.68L24.916,36.228z"/><text x="0" y="113" fill="#000000" font-size="5px" font-weight="bold" font-family="'Helvetica Neue', Helvetica, Arial-Unicode, Arial, Sans-serif">Created by SITI NURHAYATI</text><text x="0" y="118" fill="#000000" font-size="5px" font-weight="bold" font-family="'Helvetica Neue', Helvetica, Arial-Unicode, Arial, Sans-serif">from the Noun Project</text></svg>